<svg width="30" height="30" viewBox="0 0 30 30" fill="none" xmlns="http://www.w3.org/2000/svg">
<path fill-rule="evenodd" clip-rule="evenodd" d="M16.968 18.6154C15.8049 19.6286 14.2846 20.2421 12.621 20.2421C8.96434 20.2421 6 17.2778 6 13.621C6 9.96434 8.96434 7 12.621 7C16.2778 7 19.2421 9.96434 19.2421 13.621C19.2421 15.2846 18.6286 16.8049 17.6154 17.968C17.4272 17.9472 17.2324 18.0179 17.1015 18.1739C16.9943 18.3017 16.9509 18.4618 16.968 18.6154ZM17.6197 19.3739C16.2816 20.5376 14.5336 21.2421 12.621 21.2421C8.41206 21.2421 5 17.83 5 13.621C5 9.41206 8.41206 6 12.621 6C16.83 6 20.2421 9.41206 20.2421 13.621C20.2421 15.4941 19.5664 17.2093 18.4454 18.5363L23.7906 23.0214C24.0386 23.2295 24.071 23.5993 23.8629 23.8473C23.6548 24.0953 23.285 24.1277 23.037 23.9196L17.6197 19.3739Z" fill="url(#paint0_linear)"/>
<defs>
<linearGradient id="paint0_linear" x1="14.5" y1="6" x2="14.5" y2="24.0567" gradientUnits="userSpaceOnUse">
<stop stop-color="#AD5BEB"/>
<stop offset="0.265193" stop-color="#B377E1"/>
<stop offset="0.541436" stop-color="#C678DB"/>
<stop offset="0.790055" stop-color="#DA6EA9"/>
<stop offset="1" stop-color="#E76E92"/>
</linearGradient>
</defs>
</svg>
