<svg width="30" height="30" viewBox="0 0 30 30" fill="none" xmlns="http://www.w3.org/2000/svg">
<path fill-rule="evenodd" clip-rule="evenodd" d="M15.171 5.24396L14.5521 5.01889V5L14.5261 5.00944L14.5002 5V5.01889L13.8812 5.24396C10.9084 6.32502 9.34001 9.14087 8.51196 11.816C7.67907 14.5068 7.55202 17.1867 7.55202 18.2139C7.55202 18.9031 7.34061 19.2637 7.14327 19.4532C6.93328 19.6548 6.68662 19.7139 6.55211 19.7139H6.49056L6.43084 19.7288C6.23611 19.7775 6.01101 19.8535 5.80038 19.9588C5.59754 20.0602 5.3654 20.2098 5.2029 20.4253C5.02311 20.6637 4.93052 20.9876 5.06165 21.3398C5.17711 21.65 5.44014 21.9068 5.77476 22.1299C6.15057 22.3804 6.73742 22.5802 7.37822 22.7463C8.03626 22.9169 8.81257 23.0666 9.61016 23.195C10.1511 23.2821 10.7056 23.3599 11.2449 23.428C11.9218 24.3643 13.2437 25 14.7635 25C16.3202 25 17.6692 24.3331 18.3302 23.3595C18.7011 23.309 19.0747 23.2541 19.4421 23.195C20.2397 23.0666 21.016 22.9169 21.6741 22.7463C22.3149 22.5802 22.9017 22.3804 23.2775 22.1299C23.6121 21.9068 23.8752 21.65 23.9906 21.3398C24.1218 20.9876 24.0292 20.6637 23.8494 20.4253C23.6869 20.2098 23.4547 20.0602 23.2519 19.9588C23.0413 19.8535 22.8162 19.7775 22.6214 19.7288L22.5617 19.7139H22.5002C22.3657 19.7139 22.119 19.6548 21.909 19.4532C21.7117 19.2637 21.5003 18.9031 21.5003 18.2139C21.5003 17.1867 21.3732 14.5068 20.5403 11.816C19.7123 9.14087 18.1439 6.32502 15.171 5.24396ZM8.55202 18.2139C8.55202 17.5442 8.61032 16.1176 8.90507 14.4587C9.59308 13.0953 10.8396 11.6604 11.5 11C12 10.5 13 9.4 13 9C13 8.62559 14.7523 7.34583 15.7966 6.63689C17.7324 7.76437 18.8959 9.88544 19.585 12.1117C20.3772 14.6709 20.5003 17.241 20.5003 18.2139C20.5003 19.1246 20.7888 19.764 21.2164 20.1745C21.6052 20.5477 22.0714 20.695 22.4292 20.7121C22.554 20.7465 22.6875 20.7946 22.8047 20.8533C22.9315 20.9167 23.0059 20.9757 23.0408 21.015C23.0129 21.0598 22.9328 21.1578 22.7228 21.2978C22.4986 21.4473 22.0563 21.6142 21.4231 21.7783C20.8072 21.9379 20.0648 22.0819 19.2832 22.2077C17.9872 22.4163 16.6062 22.5713 15.5603 22.6652L15.5518 22.7139H13.5518L13.5369 22.6693C12.4859 22.5758 11.0837 22.4193 9.76906 22.2077C8.98749 22.0819 8.24504 21.9379 7.62913 21.7783C6.99596 21.6142 6.55365 21.4473 6.32946 21.2978C6.11943 21.1578 6.03942 21.0598 6.01149 21.015C6.04635 20.9757 6.12075 20.9167 6.24759 20.8533C6.3648 20.7946 6.49826 20.7465 6.62309 20.7121C6.98092 20.695 7.44712 20.5477 7.83583 20.1745C8.26345 19.764 8.55202 19.1246 8.55202 18.2139Z" fill="url(#paint0_linear)"/>
<defs>
<linearGradient id="paint0_linear" x1="14.5261" y1="5" x2="14.5261" y2="25" gradientUnits="userSpaceOnUse">
<stop stop-color="#AD5BEB"/>
<stop offset="0.309392" stop-color="#C678DB"/>
<stop offset="0.61326" stop-color="#C678DB"/>
<stop offset="0.845304" stop-color="#DA6EA9"/>
<stop offset="1" stop-color="#E76E92"/>
</linearGradient>
</defs>
</svg>
